<svg width="258" height="800" xmlns="http://www.w3.org/2000/svg" xmlns:xlink="http://www.w3.org/1999/xlink">
 <title>Pseudo-Celtic ornamental knot with 49 crossings which fits in rectangle</title>
 <defs>
  <path d="m240.416,121.118l65.124,-65.1239c15.82,-15.8195 37.276,-24.7072 59.649,-24.7072c46.589,0 84.357,37.7678 84.357,84.3561c0,46.589 -37.768,84.357 -84.357,84.357l-84.356,0l400,-400l-84.357,0c-46.589,0 -84.357,37.768 -84.357,84.357c0,46.5883 37.768,84.3561 84.357,84.3561l77.901,0c3.565,0 6.456,-2.8901 6.456,-6.4553c0,-1.7121 -0.681,-3.3542 -1.891,-4.5647l-77.901,-77.9011c-31.882,-31.881 -75.122,-49.792 -120.208,-49.792c-45.087,0 -88.328,17.911 -120.209,49.792l-240.416,240.416c-31.8811,31.881 -75.1213,49.792 -120.208,49.792c-45.0867,0 -88.3269,-17.911 -120.208,-49.792l-240.416,-240.416c-31.881,-31.881 -75.122,-49.792 -120.209,-49.792c-45.086,0 -88.326,17.911 -120.208,49.792l-77.901,77.9011c-1.21,1.2105 -1.891,2.8526 -1.891,4.5647c0,3.5652 2.891,6.4553 6.456,6.4553l77.901,0c46.589,0 84.357,-37.7678 84.357,-84.3561c0,-46.589 -37.768,-84.357 -84.357,-84.357l-84.357,0l400,400l-84.356,0c-46.589,0 -84.357,-37.768 -84.357,-84.357c0,-46.5883 37.768,-84.3561 84.357,-84.3561c22.373,0 43.829,8.8877 59.649,24.7072l65.124,65.1239l65.124,-65.1239c15.819,-15.8195 37.276,-24.7072 59.649,-24.7072c46.5883,0 84.3561,37.7678 84.3561,84.3561c0,46.589 -37.7678,84.357 -84.3561,84.357l-84.357,0l400,-400l-84.357,0c-46.5883,0 -84.3561,37.768 -84.3561,84.357c0,46.5883 37.7678,84.3561 84.3561,84.3561c22.373,0 43.83,-8.8877 59.649,-24.7072l65.124,-65.1239l65.124,65.1239c15.82,15.8195 37.276,24.7072 59.649,24.7072c46.589,0 84.357,-37.7678 84.357,-84.3561c0,-46.589 -37.768,-84.357 -84.357,-84.357l-84.356,0l400,400l-84.357,0c-46.589,0 -84.357,-37.768 -84.357,-84.357c0,-46.5883 37.768,-84.3561 84.357,-84.3561l77.901,0c3.565,0 6.456,2.8901 6.456,6.4553c0,1.7121 -0.681,3.3542 -1.891,4.5647l-77.901,77.9011c-31.882,31.881 -75.122,49.792 -120.208,49.792c-45.087,0 -88.328,-17.911 -120.209,-49.792l-240.416,-240.416c-31.8811,-31.881 -75.1213,-49.792 -120.208,-49.792c-45.0867,0 -88.3269,17.911 -120.208,49.792l-240.416,240.416c-31.881,31.881 -75.122,49.792 -120.209,49.792c-45.086,0 -88.326,-17.911 -120.208,-49.792l-77.901,-77.9011c-1.21,-1.2105 -1.891,-2.8526 -1.891,-4.5647c0,-3.5652 2.891,-6.4553 6.456,-6.4553l77.901,0c46.589,0 84.357,37.7678 84.357,84.3561c0,46.589 -37.768,84.357 -84.357,84.357l-84.357,0l400,-400l-84.356,0c-46.589,0 -84.357,37.768 -84.357,84.357c0,46.5883 37.768,84.3561 84.357,84.3561c22.373,0 43.829,-8.8877 59.649,-24.7072l65.124,-65.1239l65.124,65.1239c15.819,15.8195 37.276,24.7072 59.649,24.7072c46.5883,0 84.3561,-37.7678 84.3561,-84.3561c0,-46.589 -37.7678,-84.357 -84.3561,-84.357l-84.357,0l400,400l-84.357,0c-46.5883,0 -84.3561,-37.768 -84.3561,-84.357c0,-46.5883 37.7678,-84.3561 84.3561,-84.3561c22.373,0 43.83,8.8877 59.649,24.7072l65.124,65.1239z" stroke-linejoin="round" id="Main"/>
 </defs>
 <g>
  <title>background</title>
  <rect fill="none" id="canvas_background" height="802" width="260" y="-1" x="-1"/>
 </g>
 <g>
  <title>Layer 1</title>
  <g id="svg_1" fill="none" transform="rotate(90 129.00004577636716,402.00000000000006) translate(400,129) scale(0.5649999976158142,-0.5649999976158142) ">
   <use y="-483.185831" x="-479.646009" id="svg_2" xlink:href="#Main" stroke="#ffffff" stroke-width="55"/>
   <use y="-483.185831" x="-479.646009" id="svg_3" xlink:href="#Main" stroke="#000000" stroke-width="36"/>
   <path id="svg_4" d="m-384.583309,-342.249831c9.0263,-6.088 17.4473,-13.03 25.1453,-20.728l15,-15m-230.2707,-246.144c-9.0263,6.088 -17.4473,13.03 -25.1453,20.728l-15,15m126.31103,274.975c-24.58983,-1.289 -48.60673,-7.904 -70.38823,-19.388m88.18217,-320.146c24.58983,1.289 48.60673,7.904 70.38823,19.388m-173.0955,184.5401c29.1106,7.8001 51.8491,30.5386 59.6492,59.6492m68.3222,-187.6206c7.8001,29.1106 30.5386,51.8491 59.6492,59.6492m-187.6206,-162.9639c29.1106,7.8 51.8491,30.538 59.6492,59.649m127.9714,334.601c-29.1106,-7.8 -51.8491,-30.538 -59.6492,-59.649m-50.1611,-121.476l32,-32m-152,152l32,-32m208,-208l32,-32m-94,178l34,34m-118,-118l-34,-34m651.895,216.936c9.026,-6.088 17.447,-13.03 25.146,-20.728l15,-15m-230.271,-246.144c-9.026,6.088 -17.447,13.03 -25.145,20.728l-15,15m126.311,274.975c-24.59,-1.289 -48.607,-7.904 -70.389,-19.388m88.182,-320.146c24.59,1.289 48.607,7.904 70.389,19.388m-173.096,184.5401c29.111,7.8001 51.849,30.5386 59.649,59.6492m68.323,-187.6206c7.8,29.1106 30.538,51.8491 59.649,59.6492m-187.621,-162.9639c29.111,7.8 51.849,30.538 59.649,59.649m127.972,334.601c-29.111,-7.8 -51.849,-30.538 -59.649,-59.649m-50.161,-121.476l32,-32m-152,152l32,-32m208,-208l32,-32m-94,178l34,34m-118,-118l-34,-34m-790.603,216.936c9.026,-6.088 17.447,-13.03 25.145,-20.728l15,-15m-230.27,-246.144c-9.026,6.088 -17.447,13.03 -25.146,20.728l-15,15m126.312,274.975c-24.59,-1.289 -48.607,-7.904 -70.389,-19.388m88.182,-320.146c24.59,1.289 48.607,7.904 70.389,19.388m-173.096,184.5401c29.111,7.8001 51.849,30.5386 59.649,59.6492m68.323,-187.6206c7.8,29.1106 30.538,51.8491 59.649,59.6492m-187.621,-162.9639c29.111,7.8 51.849,30.538 59.649,59.649m127.972,334.601c-29.111,-7.8 -51.849,-30.538 -59.649,-59.649m-50.162,-121.476l32,-32m-152,152l32,-32m208,-208l32,-32m-94,178l34,34m-118,-118l-34,-34m781.249,92l32,-32m-512.832,32l32,-32m508.832,60l34,34m-122,-122l-34,-34m-358.832,122l34,34m-122,-122l-34,-34m156.829,33.104c-4.944,-3.2102 -9.538,-6.9302 -13.705,-11.0981l-25,-25m361.879,125.8901c4.944,3.2102 9.538,6.9302 13.705,11.0981l25,25m-519.537,-36.0981c4.943,3.2102 9.537,6.9302 13.705,11.0981l25,25m599.785,-125.8901c-4.943,-3.2102 -9.537,-6.9302 -13.705,-11.0981l-25,-25" stroke="#ffffff" stroke-width="55"/>
   <path id="svg_5" d="m-394.646009,-335.961831c12.866,-7.428 24.703,-16.511 35.208,-27.016l20,-20m-225.208,-247.432c-12.866,7.428 -24.703,16.511 -35.208,27.016l-20,20m140.208,270.208c-29.8411,0 -59.1567,-7.855 -84.9998,-22.776m84.9998,-317.224c29.8411,0 59.1567,7.855 85,22.776m-200.643,178.5109c46.5883,0 84.3561,37.7678 84.3561,84.3561m62.5738,-231.286c0,46.5883 37.7678,84.3561 84.3561,84.3561m-231.286,-168.7131c46.5883,0 84.3561,37.768 84.3561,84.357m146.9299,315.643c-46.5883,0 -84.3561,-37.768 -84.3561,-84.357m-52.2869,-94.643l42,-42m-162,162l42,-42m198,-198l42,-42m-104,178l44,44m-118,-118l-44,-44m646.833,228.224c12.865,-7.428 24.702,-16.511 35.208,-27.016l20,-20m-225.208,-247.432c-12.866,7.428 -24.703,16.511 -35.208,27.016l-20,20m140.208,270.208c-29.842,0 -59.157,-7.855 -85,-22.776m85,-317.224c29.841,0 59.156,7.855 85,22.776m-200.644,178.5109c46.589,0 84.357,37.7678 84.357,84.3561m62.573,-231.286c0,46.5883 37.768,84.3561 84.357,84.3561m-231.287,-168.7131c46.589,0 84.357,37.768 84.357,84.357m146.93,315.643c-46.589,0 -84.357,-37.768 -84.357,-84.357m-52.286,-94.643l42,-42m-162,162l42,-42m198,-198l42,-42m-104,178l44,44m-118,-118l-44,-44m-795.666,228.224c12.866,-7.428 24.703,-16.511 35.208,-27.016l20,-20m-225.208,-247.432c-12.865,7.428 -24.702,16.511 -35.208,27.016l-20,20m140.208,270.208c-29.841,0 -59.156,-7.855 -84.999,-22.776m84.999,-317.224c29.842,0 59.157,7.855 85,22.776m-200.643,178.5109c46.589,0 84.357,37.7678 84.357,84.3561m62.573,-231.286c0,46.5883 37.768,84.3561 84.357,84.3561m-231.287,-168.7131c46.589,0 84.357,37.768 84.357,84.357m146.93,315.643c-46.589,0 -84.357,-37.768 -84.357,-84.357m-52.287,-94.643l42,-42m-162,162l42,-42m198,-198l42,-42m-104,178l44,44m-118,-118l-44,-44m781.249,102l42,-42m-522.832,42l42,-42m498.832,60l44,44m-122,-122l-44,-44m-358.832,122l44,44m-122,-122l-44,-44m169.476,42.5188c-7.887,-4.0186 -15.093,-9.2537 -21.352,-15.5129l-31,-31m360.232,127.4753c7.887,4.0186 15.093,9.2537 21.352,15.5129l31,31m-533.184,-46.5129c7.887,4.0186 15.093,9.2537 21.352,15.5129l31,31m601.432,-127.4753c-7.887,-4.0186 -15.093,-9.2537 -21.352,-15.5129l-31,-31" stroke="#000000" stroke-width="36"/>
  </g>
 </g>
</svg>