<?xml version="1.0" encoding="UTF-8" standalone="no"?>
<svg xmlns="http://www.w3.org/2000/svg" width="800" height="258" viewBox="0 0 800 258" xmlns:xlink="http://www.w3.org/1999/xlink">
<title>Pseudo-Celtic ornamental knot with 49 crossings which fits in rectangle</title>
<defs><path id="Main" stroke-linejoin="round" d="M240.416,121.118L305.54,55.9941
C321.36,40.1746,342.816,31.2869,365.189,31.2869
C411.778,31.2869,449.546,69.0547,449.546,115.643
C449.546,162.232,411.778,200,365.189,200H280.833L680.833,-200H596.476
C549.887,-200,512.119,-162.232,512.119,-115.643
C512.119,-69.0547,549.887,-31.2869,596.476,-31.2869H674.377
C677.942,-31.2869,680.833,-34.177,680.833,-37.7422
C680.833,-39.4543,680.152,-41.0964,678.942,-42.3069L601.041,-120.208
C569.159,-152.089,525.919,-170,480.833,-170
C435.746,-170,392.505,-152.089,360.624,-120.208L120.208,120.208
C88.3269,152.089,45.0867,170,0,170
C-45.0867,170,-88.3269,152.089,-120.208,120.208L-360.624,-120.208
C-392.505,-152.089,-435.746,-170,-480.833,-170
C-525.919,-170,-569.159,-152.089,-601.041,-120.208L-678.942,-42.3069
C-680.152,-41.0964,-680.833,-39.4543,-680.833,-37.7422
C-680.833,-34.177,-677.942,-31.2869,-674.377,-31.2869H-596.476
C-549.887,-31.2869,-512.119,-69.0547,-512.119,-115.643
C-512.119,-162.232,-549.887,-200,-596.476,-200H-680.833L-280.833,200H-365.189
C-411.778,200,-449.546,162.232,-449.546,115.643
C-449.546,69.0547,-411.778,31.2869,-365.189,31.2869
C-342.816,31.2869,-321.36,40.1746,-305.54,55.9941L-240.416,121.118L-175.292,55.9941
C-159.473,40.1746,-138.016,31.2869,-115.643,31.2869
C-69.0547,31.2869,-31.2869,69.0547,-31.2869,115.643
C-31.2869,162.232,-69.0547,200,-115.643,200H-200L200,-200H115.643
C69.0547,-200,31.2869,-162.232,31.2869,-115.643
C31.2869,-69.0547,69.0547,-31.2869,115.643,-31.2869
C138.016,-31.2869,159.473,-40.1746,175.292,-55.9941L240.416,-121.118L305.54,-55.9941
C321.36,-40.1746,342.816,-31.2869,365.189,-31.2869
C411.778,-31.2869,449.546,-69.0547,449.546,-115.643
C449.546,-162.232,411.778,-200,365.189,-200H280.833L680.833,200H596.476
C549.887,200,512.119,162.232,512.119,115.643
C512.119,69.0547,549.887,31.2869,596.476,31.2869H674.377
C677.942,31.2869,680.833,34.177,680.833,37.7422
C680.833,39.4543,680.152,41.0964,678.942,42.3069L601.041,120.208
C569.159,152.089,525.919,170,480.833,170
C435.746,170,392.505,152.089,360.624,120.208L120.208,-120.208
C88.3269,-152.089,45.0867,-170,0,-170
C-45.0867,-170,-88.3269,-152.089,-120.208,-120.208L-360.624,120.208
C-392.505,152.089,-435.746,170,-480.833,170
C-525.919,170,-569.159,152.089,-601.041,120.208L-678.942,42.3069
C-680.152,41.0964,-680.833,39.4543,-680.833,37.7422
C-680.833,34.177,-677.942,31.2869,-674.377,31.2869H-596.476
C-549.887,31.2869,-512.119,69.0547,-512.119,115.643
C-512.119,162.232,-549.887,200,-596.476,200H-680.833L-280.833,-200H-365.189
C-411.778,-200,-449.546,-162.232,-449.546,-115.643
C-449.546,-69.0547,-411.778,-31.2869,-365.189,-31.2869
C-342.816,-31.2869,-321.36,-40.1746,-305.54,-55.9941L-240.416,-121.118L-175.292,-55.9941
C-159.473,-40.1746,-138.016,-31.2869,-115.643,-31.2869
C-69.0547,-31.2869,-31.2869,-69.0547,-31.2869,-115.643
C-31.2869,-162.232,-69.0547,-200,-115.643,-200H-200L200,200H115.643
C69.0547,200,31.2869,162.232,31.2869,115.643
C31.2869,69.0547,69.0547,31.2869,115.643,31.2869
C138.016,31.2869,159.473,40.1746,175.292,55.9941Z"/></defs>
<g transform="translate(400,129)scale(0.565,-0.565)" fill="none">
<use stroke-width="55" stroke="#ffffff" xlink:href="#Main"/>
<use stroke-width="36" stroke="#000000" xlink:href="#Main"/>
<path stroke-width="55" stroke="#ffffff" d="M95.0627,140.936
C104.089,134.848,112.51,127.906,120.208,120.208L135.208,105.208
M-95.0627,-140.936
C-104.089,-134.848,-112.51,-127.906,-120.208,-120.208L-135.208,-105.208
M-8.89697,169.767
C-33.4868,168.478,-57.5037,161.863,-79.2852,150.379
M8.89697,-169.767
C33.4868,-168.478,57.5037,-161.863,79.2852,-150.379
M-93.8103,34.1611
C-64.6997,41.9612,-41.9612,64.6997,-34.1611,93.8103
M34.1611,-93.8103
C41.9612,-64.6997,64.6997,-41.9612,93.8103,-34.1611
M-93.8103,-197.125
C-64.6997,-189.325,-41.9612,-166.587,-34.1611,-137.476
M93.8103,197.125
C64.6997,189.325,41.9612,166.587,34.1611,137.476
M-16,16L16,-16
M-136,136L-104,104
M104,-104L136,-136
M42,42L76,76
M-42,-42L-76,-76
M575.895,140.936
C584.921,134.848,593.342,127.906,601.041,120.208L616.041,105.208
M385.77,-140.936
C376.744,-134.848,368.323,-127.906,360.625,-120.208L345.625,-105.208
M471.936,169.767
C447.346,168.478,423.329,161.863,401.547,150.379
M489.729,-169.767
C514.319,-168.478,538.336,-161.863,560.118,-150.379
M387.022,34.1611
C416.133,41.9612,438.871,64.6997,446.671,93.8103
M514.994,-93.8103
C522.794,-64.6997,545.532,-41.9612,574.643,-34.1611
M387.022,-197.125
C416.133,-189.325,438.871,-166.587,446.671,-137.476
M574.643,197.125
C545.532,189.325,522.794,166.587,514.994,137.476
M464.833,16L496.833,-16
M344.833,136L376.833,104
M584.833,-104L616.833,-136
M522.833,42L556.833,76
M438.833,-42L404.833,-76
M-385.77,140.936
C-376.744,134.848,-368.323,127.906,-360.625,120.208L-345.625,105.208
M-575.895,-140.936
C-584.921,-134.848,-593.342,-127.906,-601.041,-120.208L-616.041,-105.208
M-489.729,169.767
C-514.319,168.478,-538.336,161.863,-560.118,150.379
M-471.936,-169.767
C-447.346,-168.478,-423.329,-161.863,-401.547,-150.379
M-574.643,34.1611
C-545.532,41.9612,-522.794,64.6997,-514.994,93.8103
M-446.671,-93.8103
C-438.871,-64.6997,-416.133,-41.9612,-387.022,-34.1611
M-574.643,-197.125
C-545.532,-189.325,-522.794,-166.587,-514.994,-137.476
M-387.022,197.125
C-416.133,189.325,-438.871,166.587,-446.671,137.476
M-496.833,16L-464.833,-16
M-616.833,136L-584.833,104
M-376.833,-104L-344.833,-136
M-438.833,42L-404.833,76
M-522.833,-42L-556.833,-76
M224.416,16L256.416,-16
M-256.416,16L-224.416,-16
M284.416,44L318.416,78
M196.416,-44L162.416,-78
M-196.416,44L-162.416,78
M-284.416,-44L-318.416,-78
M-161.587,-44.896
C-166.531,-48.1062,-171.125,-51.8262,-175.292,-55.9941L-200.292,-80.9941
M161.587,44.896
C166.531,48.1062,171.125,51.8262,175.292,55.9941L200.292,80.9941
M-319.245,44.896
C-314.302,48.1062,-309.708,51.8262,-305.54,55.9941L-280.54,80.9941
M319.245,-44.896
C314.302,-48.1062,309.708,-51.8262,305.54,-55.9941L280.54,-80.9941"/>
<path stroke-width="36" stroke="#000000" d="M85,147.224
C97.866,139.796,109.703,130.713,120.208,120.208L140.208,100.208
M-85,-147.224
C-97.866,-139.796,-109.703,-130.713,-120.208,-120.208L-140.208,-100.208
M0,170
C-29.8411,170,-59.1567,162.145,-84.9998,147.224
M0,-170
C29.8411,-170,59.1567,-162.145,85,-147.224
M-115.643,31.2869
C-69.0547,31.2869,-31.2869,69.0547,-31.2869,115.643
M31.2869,-115.643
C31.2869,-69.0547,69.0547,-31.2869,115.643,-31.2869
M-115.643,-200
C-69.0547,-200,-31.2869,-162.232,-31.2869,-115.643
M115.643,200
C69.0547,200,31.2869,162.232,31.2869,115.643
M-21,21L21,-21
M-141,141L-99,99
M99,-99L141,-141
M37,37L81,81
M-37,-37L-81,-81
M565.833,147.224
C578.698,139.796,590.535,130.713,601.041,120.208L621.041,100.208
M395.833,-147.224
C382.967,-139.796,371.13,-130.713,360.625,-120.208L340.625,-100.208
M480.833,170
C450.991,170,421.676,162.145,395.833,147.224
M480.833,-170
C510.674,-170,539.989,-162.145,565.833,-147.224
M365.189,31.2869
C411.778,31.2869,449.546,69.0547,449.546,115.643
M512.119,-115.643
C512.119,-69.0547,549.887,-31.2869,596.476,-31.2869
M365.189,-200
C411.778,-200,449.546,-162.232,449.546,-115.643
M596.476,200
C549.887,200,512.119,162.232,512.119,115.643
M459.833,21L501.833,-21
M339.833,141L381.833,99
M579.833,-99L621.833,-141
M517.833,37L561.833,81
M443.833,-37L399.833,-81
M-395.833,147.224
C-382.967,139.796,-371.13,130.713,-360.625,120.208L-340.625,100.208
M-565.833,-147.224
C-578.698,-139.796,-590.535,-130.713,-601.041,-120.208L-621.041,-100.208
M-480.833,170
C-510.674,170,-539.989,162.145,-565.832,147.224
M-480.833,-170
C-450.991,-170,-421.676,-162.145,-395.833,-147.224
M-596.476,31.2869
C-549.887,31.2869,-512.119,69.0547,-512.119,115.643
M-449.546,-115.643
C-449.546,-69.0547,-411.778,-31.2869,-365.189,-31.2869
M-596.476,-200
C-549.887,-200,-512.119,-162.232,-512.119,-115.643
M-365.189,200
C-411.778,200,-449.546,162.232,-449.546,115.643
M-501.833,21L-459.833,-21
M-621.833,141L-579.833,99
M-381.833,-99L-339.833,-141
M-443.833,37L-399.833,81
M-517.833,-37L-561.833,-81
M219.416,21L261.416,-21
M-261.416,21L-219.416,-21
M279.416,39L323.416,83
M201.416,-39L157.416,-83
M-201.416,39L-157.416,83
M-279.416,-39L-323.416,-83
M-153.94,-40.4812
C-161.827,-44.4998,-169.033,-49.7349,-175.292,-55.9941L-206.292,-86.9941
M153.94,40.4812
C161.827,44.4998,169.033,49.7349,175.292,55.9941L206.292,86.9941
M-326.892,40.4812
C-319.005,44.4998,-311.799,49.7349,-305.54,55.9941L-274.54,86.9941
M326.892,-40.4812
C319.005,-44.4998,311.799,-49.7349,305.54,-55.9941L274.54,-86.9941"/></g></svg>
