<?xml version="1.0" standalone="no"?>
<!DOCTYPE svg PUBLIC "-//W3C//DTD SVG 20010904//EN"
 "http://www.w3.org/TR/2001/REC-SVG-20010904/DTD/svg10.dtd">
<svg version="1.0" xmlns="http://www.w3.org/2000/svg"
 width="1280.000000pt" height="1280.000000pt" viewBox="0 0 1280.000000 1280.000000"
 preserveAspectRatio="xMidYMid meet">
<g transform="translate(0.000000,1280.000000) scale(0.100000,-0.100000)"
fill="#000000" stroke="none">
<path d="M11515 12594 c-16 -1 -109 -8 -205 -14 -1120 -72 -2896 -365 -3786
-625 -278 -81 -642 -227 -632 -254 5 -17 519 -602 533 -607 7 -3 59 18 114 46
521 261 1326 445 2271 520 227 18 775 24 995 11 336 -20 624 -60 656 -92 40
-40 58 -291 30 -434 -39 -201 -177 -504 -348 -765 -174 -265 -346 -473 -633
-764 -238 -242 -406 -397 -675 -625 -99 -84 -184 -159 -189 -166 -13 -18 1
-34 350 -387 l303 -307 58 46 c460 369 913 873 1282 1426 143 215 224 353 325
555 262 524 424 1009 497 1492 30 196 33 533 6 658 -24 111 -53 187 -86 224
-49 55 -95 61 -486 63 -192 2 -363 1 -380 -1z"/>
<path d="M685 12535 c-61 -8 -137 -20 -170 -27 l-60 -13 -17 -85 c-91 -449
-84 -1404 18 -2430 134 -1357 377 -2424 659 -2898 60 -102 135 -188 156 -180
18 8 631 514 643 532 6 8 -8 53 -42 132 -279 653 -540 1931 -602 2954 -24 397
6 774 73 910 21 42 25 46 72 53 80 12 363 11 450 -2 195 -30 364 -85 580 -191
299 -146 562 -331 848 -595 215 -197 318 -313 682 -763 121 -150 224 -272 230
-272 12 0 659 507 663 520 8 23 -543 578 -833 840 -813 732 -1546 1180 -2307
1410 -354 107 -720 144 -1043 105z"/>
<path d="M4605 12309 c-433 -35 -895 -181 -1105 -348 -96 -77 -156 -149 -138
-166 50 -46 730 -605 736 -605 5 0 21 14 38 31 105 111 416 257 646 303 259
53 564 -30 843 -229 251 -179 490 -410 981 -945 273 -298 410 -430 588 -565
78 -60 102 -73 116 -65 9 5 78 73 151 151 74 78 191 201 262 273 70 73 127
135 127 139 0 4 -46 56 -101 115 -90 94 -206 226 -503 566 -236 272 -546 574
-780 763 -185 148 -437 314 -601 394 -220 108 -413 163 -664 188 -117 12 -446
12 -596 0z"/>
<path d="M2579 10908 c-72 -90 -166 -240 -223 -354 -306 -617 -301 -1317 13
-1959 79 -160 210 -367 316 -500 267 -332 1188 -1225 1527 -1479 l36 -27 75
93 c41 51 119 140 172 198 108 118 255 296 255 310 0 4 -142 147 -315 317
-492 480 -790 808 -1077 1183 -384 503 -438 766 -257 1270 48 133 108 285 151
384 29 67 29 69 11 87 -37 37 -628 529 -635 529 -4 0 -26 -24 -49 -52z"/>
<path d="M5615 10699 c-440 -464 -1204 -1172 -1800 -1667 -115 -96 -230 -191
-254 -211 l-43 -36 282 -310 c155 -170 290 -319 301 -330 19 -19 20 -18 182
141 89 88 304 295 477 459 612 581 1575 1553 1575 1590 0 12 -431 491 -497
552 l-23 22 -200 -210z"/>
<path d="M9555 10794 c-253 -25 -369 -47 -590 -114 -250 -75 -452 -179 -707
-361 -573 -411 -1085 -1050 -1292 -1614 -94 -255 -137 -493 -136 -758 0 -485
122 -856 412 -1249 27 -38 54 -68 59 -68 8 0 396 325 622 520 4 3 -24 67 -62
142 -106 211 -157 390 -168 593 -11 204 29 463 103 678 70 199 214 454 365
642 197 247 622 605 806 680 196 79 450 103 743 70 227 -27 439 -84 592 -161
66 -33 88 -30 155 20 117 89 409 401 500 536 61 91 63 82 -31 140 -338 204
-681 296 -1131 304 -110 2 -218 2 -240 0z"/>
<path d="M11590 9184 c-135 -169 -249 -315 -254 -324 -6 -13 4 -57 32 -142
100 -303 122 -415 122 -630 0 -280 -71 -560 -218 -853 -90 -180 -129 -239
-219 -327 -199 -193 -924 -852 -1175 -1066 l-158 -135 18 -30 c29 -51 159
-183 312 -317 141 -124 219 -204 270 -280 13 -19 25 -37 26 -39 8 -10 644 569
834 759 510 509 887 1021 1000 1360 48 142 60 223 71 504 28 672 -55 1216
-241 1586 -54 107 -144 240 -163 240 -6 0 -122 -138 -257 -306z"/>
<path d="M8500 9214 c-135 -129 -263 -252 -284 -274 l-39 -38 244 -259 c375
-396 485 -515 900 -968 370 -405 746 -808 934 -1002 l90 -93 95 76 c52 42 158
124 235 182 178 134 322 249 330 263 8 12 -12 34 -415 449 -877 905 -1646
1697 -1740 1792 l-105 107 -245 -235z"/>
<path d="M5346 9059 c-157 -143 -286 -263 -286 -267 0 -10 81 -220 139 -362
76 -183 111 -343 111 -509 0 -128 -75 -310 -217 -526 -196 -296 -368 -490
-1029 -1155 -309 -311 -565 -575 -568 -588 -5 -15 0 -32 15 -55 58 -83 146
-179 229 -252 51 -44 133 -122 182 -174 80 -83 92 -92 111 -83 33 15 286 205
422 317 511 420 893 830 1200 1290 245 367 390 675 451 955 30 138 26 409 -10
615 -65 374 -164 661 -300 871 -53 81 -140 184 -156 184 -4 0 -136 -117 -294
-261z"/>
<path d="M2425 7699 c-99 -99 -299 -290 -445 -423 -909 -831 -1297 -1355
-1418 -1916 -89 -410 -21 -866 194 -1306 106 -217 357 -604 392 -604 26 0 113
99 171 196 161 264 246 378 306 411 14 8 7 26 -48 135 -125 246 -173 443 -164
668 14 329 146 670 398 1022 189 264 313 401 789 878 392 392 584 594 578 608
-3 9 -564 512 -570 512 -2 0 -84 -81 -183 -181z"/>
<path d="M8908 7696 c-363 -218 -705 -485 -1032 -806 -348 -342 -598 -658
-804 -1018 -231 -404 -345 -852 -313 -1232 34 -395 155 -689 420 -1017 45 -57
88 -103 96 -103 26 0 134 91 325 274 107 103 225 208 261 232 l67 44 -50 88
c-134 231 -193 431 -205 687 -17 383 104 760 372 1160 335 500 754 884 1364
1252 10 6 -36 68 -179 243 -106 129 -197 241 -204 247 -9 10 -34 0 -118 -51z"/>
<path d="M2310 6094 c-168 -178 -305 -330 -305 -338 0 -21 698 -822 1025
-1176 516 -559 1066 -1100 1091 -1073 4 5 52 64 107 133 55 69 154 193 221
275 156 194 151 184 116 235 -109 157 -334 420 -911 1065 -577 645 -787 891
-947 1107 -40 54 -76 97 -82 97 -5 0 -147 -146 -315 -325z"/>
<path d="M8474 6079 l-267 -291 174 -172 c96 -94 288 -283 428 -421 336 -330
470 -484 670 -764 210 -295 344 -592 407 -898 61 -299 18 -566 -136 -860 l-60
-112 188 -181 c201 -193 272 -251 341 -282 70 -32 100 -20 174 66 233 274 365
543 423 861 24 136 25 422 0 553 -97 527 -402 1043 -1020 1730 -142 159 -1033
1062 -1047 1062 -4 0 -128 -131 -275 -291z"/>
<path d="M5335 5979 c-115 -122 -229 -243 -253 -270 l-43 -48 25 -83 c91 -299
91 -605 1 -951 -84 -322 -253 -655 -472 -927 -85 -107 -266 -289 -359 -362
-550 -435 -1209 -519 -1729 -223 -43 25 -83 45 -89 45 -6 0 -24 -21 -41 -47
-42 -67 -107 -143 -217 -253 -88 -89 -188 -220 -188 -246 0 -27 444 -185 680
-243 461 -112 885 -112 1329 0 412 104 747 300 1051 615 138 143 243 280 346
452 311 520 474 1092 474 1667 0 339 -55 639 -161 875 -39 86 -120 220 -133
220 -6 0 -105 -100 -221 -221z"/>
<path d="M11459 5877 c-124 -117 -259 -242 -299 -280 l-73 -67 75 -158 c195
-407 306 -799 387 -1367 60 -423 81 -716 81 -1145 0 -419 -21 -700 -75 -1007
-45 -253 -94 -388 -159 -438 -242 -185 -955 128 -1696 744 -156 130 -444 420
-562 566 -105 131 -206 278 -253 368 -16 31 -33 56 -36 54 -4 -1 -152 -145
-330 -320 l-323 -319 43 -84 c192 -375 511 -735 926 -1046 710 -531 1593 -878
2495 -979 63 -7 214 -13 335 -14 l219 0 13 45 c22 75 82 377 102 520 74 504
104 1079 89 1730 -25 1167 -247 2392 -562 3110 -53 121 -146 293 -161 296 -5
2 -112 -93 -236 -209z"/>
<path d="M8817 4701 c-175 -131 -319 -267 -907 -858 -757 -761 -959 -947
-1233 -1135 -99 -68 -102 -75 -51 -150 32 -45 214 -223 360 -350 60 -53 122
-111 136 -130 l26 -33 48 25 c27 14 107 64 179 111 558 371 1428 1183 1913
1787 52 64 96 123 99 129 6 15 -463 663 -480 663 -7 0 -47 -27 -90 -59z"/>
<path d="M2413 4622 c-154 -105 -244 -181 -418 -356 -427 -428 -840 -1025
-1182 -1711 -360 -719 -560 -1453 -515 -1884 12 -116 55 -266 94 -329 57 -93
266 -110 798 -66 698 57 2028 289 3385 590 704 157 1440 354 1452 391 6 18
-43 68 -274 280 -218 200 -317 304 -349 365 -19 36 3 40 -286 -51 -1112 -351
-2097 -548 -3013 -602 -236 -14 -678 -7 -700 11 -20 17 -45 95 -55 179 -40
306 177 838 555 1366 139 193 360 472 520 655 150 171 461 482 585 585 52 43
95 82 95 85 0 13 -564 560 -577 560 -8 0 -59 -31 -115 -68z"/>
<path d="M5301 3035 c-154 -206 -281 -379 -281 -384 0 -18 157 -244 243 -351
109 -135 272 -310 412 -441 605 -571 1306 -995 1887 -1143 239 -61 311 -70
553 -71 190 0 235 3 332 23 278 56 476 160 677 354 42 40 76 81 76 91 0 30
-69 95 -194 182 -177 123 -252 188 -284 245 -15 27 -29 50 -32 50 -3 0 -32
-20 -65 -45 -83 -63 -197 -120 -291 -147 -64 -18 -103 -22 -209 -22 -206 0
-376 44 -602 155 -495 243 -1124 843 -1813 1729 -62 80 -116 146 -120 148 -4
1 -134 -166 -289 -373z"/>
</g>
</svg>
