<?xml version="1.0" standalone="no"?>
<!DOCTYPE svg PUBLIC "-//W3C//DTD SVG 1.0//EN" "http://www.w3.org/TR/2001/REC-SVG-20010904/DTD/svg10.dtd">
<svg width="600" height="600" viewBox="0 0 600 600" xmlns="http://www.w3.org/2000/svg" xmlns:svg="http://www.w3.org/2000/svg" xmlns:xlink="http://www.w3.org/1999/xlink">
<title>Celtic or pseudo-Celtic decorative knot to fill square box.  By AnonMoos (public domain)</title>
<defs>
<path id="KnotArc1" d="M-904.191,-904.191 V-585.993 L-459.099,-140.901
C-416.903,-98.7053,-359.674,-75,-300,-75 C-175.736,-75,-75,-175.736,-75,-300
C-75,-424.264,-175.736,-525,-300,-525
C-359.674,-525,-416.903,-501.294,-459.099,-459.099 L-759.099,-159.099
L89.0952,689.095 C112.725,712.725,126,744.774,126,778.191
C126,847.779,69.5876,904.191,0,904.191
C-499.371,904.191,-904.191,499.371,-904.191,0
C-904.191,-499.371,-499.371,-904.191,0,-904.191
C69.5876,-904.191,126,-847.779,126,-778.191
C126,-744.774,112.725,-712.725,89.0952,-689.095 L-759.099,159.099
L-459.099,459.099 C-416.903,501.294,-359.674,525,-300,525
C-175.736,525,-75,424.264,-75,300 C-75,175.736,-175.736,75,-300,75
C-359.674,75,-416.903,98.7053,-459.099,140.901 L-904.191,585.993 V904.191"/>
<path id="KnotArc3" d="M-904.191,904.191 H-525 V618.198
C-525,558.524,-501.294,501.294,-459.099,459.099 L459.099,-459.099
C501.294,-501.294,525,-558.524,525,-618.198 L525,-904.191 H904.191"/>
</defs>
<g transform="translate(300,300) scale(0.299046,-0.299046)" stroke-width="126" stroke="rgb(0,0,0)" fill="none">
<g stroke-linejoin="round">
<use xlink:href="#KnotArc1"/>
<use xlink:href="#KnotArc1" stroke-width="54" stroke="rgb(76,204,107)"/>
<use xlink:href="#KnotArc1" transform="scale(-1,1)"/>
<use xlink:href="#KnotArc1" transform="scale(-1,1)" stroke-width="54" stroke="rgb(76,204,107)"/>
<use xlink:href="#KnotArc3"/>
<use xlink:href="#KnotArc3" stroke-width="54" stroke="rgb(76,204,107)"/>
<use xlink:href="#KnotArc3" transform="scale(1,-1)"/>
<use xlink:href="#KnotArc3" transform="scale(1,-1)" stroke-width="54" stroke="rgb(76,204,107)"/>
</g>
<path d="M-96.0806,-204.911
C-118.436,-156.969,-156.969,-118.436,-204.911,-96.0806
M96.0806,204.911 C118.436,156.969,156.969,118.436,204.911,96.0806
M-96.0806,395.089 C-118.436,443.031,-156.969,481.564,-204.911,503.919
M96.0806,-395.089 C118.436,-443.031,156.969,-481.564,204.911,-503.919
M-395.089,96.0806 C-418.876,107.173,-440.54,122.342,-459.099,140.901
L-507.099,188.901
M395.089,-96.0806 C418.876,-107.173,440.54,-122.342,459.099,-140.901
L507.099,-188.901
M-395.089,-503.919 C-418.876,-492.827,-440.54,-477.658,-459.099,-459.099
L-507.099,-411.099
M395.089,503.919 C418.876,492.827,440.54,477.658,459.099,459.099
L507.099,411.099
M819.475,382.127 C797.23,429.833,770.861,475.505,740.67,518.623
M-819.475,-382.127 C-797.23,-429.833,-770.861,-475.505,-740.67,-518.623
M-438.36,790.823 C-507.471,752.514,-571.263,705.311,-628.104,650.42
M438.36,-790.823 C507.471,-752.514,571.263,-705.311,628.104,-650.42
M122.257,-808.673 C108.263,-864.802,57.8469,-904.191,0,-904.191
C-63.1819,-904.191,-126.19,-897.568,-187.992,-884.432
M-348,252 L-252,348
M348,-252 L252,-348
M48,648 L-48,552
M648,48 L552,-48
M-552,48 L-648,-48
M666.198,348 L570.198,252
M-570.198,348 L-666.198,252
M666.198,-252 L570.198,-348
M-570.198,-252 L-666.198,-348
M92.9009,507.099 L188.901,411.099
M411.099,188.901 L507.099,92.9009
M-507.099,-92.9009 L-411.099,-188.901
M-188.901,-411.099 L-92.9009,-507.099
M-720.198,402 L-831.198,513
M720.198,-402 L831.198,-513
M904.191,679.191 V904.191 H679.191
M-904.191,-679.191 V-904.191 H-679.191
M904.191,-679.191 V-904.191 H679.191
M-904.191,679.191 V904.191 H-679.191"/>
<path stroke-width="54" stroke="rgb(76,204,107)" d="M-94.4521,-208.484
C-117.067,-157.69,-157.69,-117.067,-208.484,-94.4521
M94.4521,208.484 C117.067,157.69,157.69,117.067,208.484,94.4521
M-94.4521,391.516 C-117.067,442.31,-157.69,482.932,-208.484,505.548
M94.4521,-391.516 C117.067,-442.31,157.69,-482.932,208.484,-505.548
M-391.516,94.4521 C-416.698,105.664,-439.607,121.409,-459.099,140.901
L-510.099,191.901
M391.516,-94.4521 C416.698,-105.664,439.607,-121.409,459.099,-140.901
L510.099,-191.901
M-391.516,-505.548 C-416.698,-494.336,-439.607,-478.591,-459.099,-459.099
L-510.099,-408.099
M391.516,505.548 C416.698,494.336,439.607,478.591,459.099,459.099
L510.099,408.099
M826.019,367.768 C800.321,425.487,768.643,480.355,731.506,531.47
M-826.019,-367.768 C-800.321,-425.487,-768.643,-480.355,-731.506,-531.47
M-424.492,798.353 C-503.595,756.293,-576.009,702.709,-639.359,639.359
M424.492,-798.353 C503.595,-756.293,576.009,-702.709,639.359,-639.359
M122.771,-806.535 C109.573,-863.699,58.668,-904.191,0,-904.191
C-68.458,-904.191,-136.695,-896.416,-203.399,-881.016
M-351,249 L-249,351
M351,-249 L249,-351
M51,651 L-51,549
M651,51 L549,-51
M-549,51 L-651,-51
M669.198,351 L567.198,249
M-567.198,351 L-669.198,249
M669.198,-249 L567.198,-351
M-567.198,-249 L-669.198,-351
M89.9009,510.099 L191.901,408.099
M408.099,191.901 L510.099,89.9009
M-510.099,-89.9009 L-408.099,-191.901
M-191.901,-408.099 L-89.9009,-510.099
M-717.198,399 L-834.198,516
M717.198,-399 L834.198,-516
M904.191,676.191 V904.191 H676.191
M-904.191,-676.191 V-904.191 H-676.191
M904.191,-676.191 V-904.191 H676.191
M-904.191,676.191 V904.191 H-676.191"/>
</g></svg>
